<?xml version="1.0" standalone="no"?>
<!DOCTYPE svg PUBLIC "-//W3C//DTD SVG 20010904//EN"
 "http://www.w3.org/TR/2001/REC-SVG-20010904/DTD/svg10.dtd">
<svg version="1.0" xmlns="http://www.w3.org/2000/svg"
 width="1080.000000pt" height="1080.000000pt" viewBox="0 0 1080.000000 1080.000000"
 preserveAspectRatio="xMidYMid meet">
<metadata>
Created by potrace 1.14, written by Peter Selinger 2001-2017
</metadata>
<g transform="translate(0.000000,1080.000000) scale(0.100000,-0.100000)"
fill="#000000" stroke="none">
<path d="M770 5520 l0 -2410 475 0 475 0 0 980 0 980 955 0 955 0 0 390 0 390
-955 0 -955 0 0 645 0 645 1055 0 1055 0 0 395 0 395 -1530 0 -1530 0 0 -2410z"/>
<path d="M4180 7924 c0 -14 1100 -4806 1105 -4815 4 -5 217 -9 534 -9 l528 0
27 103 c15 56 195 757 400 1557 l373 1455 35 3 c32 3 35 1 46 -35 6 -21 193
-713 417 -1538 223 -825 410 -1510 415 -1523 l10 -22 531 2 532 3 548 2400
c302 1320 549 2406 549 2413 0 10 -95 12 -457 10 l-457 -3 -365 -1692 -366
-1693 -41 0 c-40 0 -42 1 -53 43 -7 23 -205 785 -440 1692 l-428 1650 -409 3
-410 2 -422 -1659 c-233 -912 -428 -1675 -433 -1695 -10 -36 -12 -37 -52 -34
l-41 3 -363 1685 c-199 927 -362 1688 -363 1693 0 8 -950 10 -950 1z"/>
</g>
</svg>
